<?xml version="1.0" encoding="utf-8"?>
<!-- Generator: Adobe Illustrator 16.0.0, SVG Export Plug-In . SVG Version: 6.00 Build 0)  -->
<!DOCTYPE svg PUBLIC "-//W3C//DTD SVG 1.1//EN" "http://www.w3.org/Graphics/SVG/1.1/DTD/svg11.dtd">
<svg version="1.1" id="Capa_1" xmlns="http://www.w3.org/2000/svg" xmlns:xlink="http://www.w3.org/1999/xlink" x="0px" y="0px"
	 width="1024px" height="768px" viewBox="0 0 1024 768" enable-background="new 0 0 1024 768" xml:space="preserve">
<g>
	<g>
		<path fill="#C2A061" d="M766.79,451.395C764,448.604,760.145,447,756.185,447c-3.944,0-7.798,1.604-10.604,4.395
			c-2.79,2.79-4.396,6.66-4.396,10.605s1.605,7.815,4.396,10.604c2.806,2.79,6.659,4.396,10.604,4.396
			c3.947,0,7.817-1.605,10.605-4.396c2.805-2.788,4.395-6.645,4.395-10.604C771.185,458.038,769.595,454.185,766.79,451.395z"/>
	</g>
</g>
<g>
	<g>
		<path fill="#C2A061" d="M820.155,641.388l-33.957-37.778c-9.676-10.768-15.007-24.669-15.007-39.147v-40.64
			c0-8.283-6.718-15-15-15c-8.283,0-15,6.717-15,15v40.64c0,21.896,8.061,42.92,22.696,59.202l33.955,37.777
			c14.571,16.212,15.632,40.615,2.496,58.061l-0.213,0.283c-12.312,16.354-34.212,22.535-53.261,15.027l-21.222-8.364
			c-26.001-10.246-53.97-12.06-80.891-5.236C614.521,728.869,566.932,738,511.896,738s-102.625-9.131-132.855-16.788
			c-26.919-6.82-54.891-5.012-80.892,5.236l-21.222,8.364c-19.046,7.508-40.949,1.326-53.259-15.027
			c-13.216-17.551-12.056-42.065,2.757-58.29l34.367-37.651c14.931-16.353,23.155-37.559,23.155-59.707V356.374
			c0-126.062,102.56-228.622,228.624-228.622c126.062,0,228.621,102.56,228.621,228.622v46.376c0,8.283,6.717,15,15,15
			s15-6.717,15-15v-46.375c0-76.649-33.529-145.604-86.676-193.004V87.42c17.458-6.192,30-22.864,30-42.42c0-24.813-20.188-45-45-45
			c-24.813,0-45,20.187-45,45c0,19.554,12.541,36.228,30,42.42v52.879c-40.776-26.877-89.562-42.547-141.946-42.547
			c-52.858,0-102.056,15.953-143.054,43.278V87.42c17.458-6.192,30-22.864,30-42.42c0-24.813-20.187-45-45-45s-45,20.187-45,45
			c0,19.554,12.542,36.228,30,42.42v76.934c-52.508,47.369-85.569,115.903-85.569,192.021v207.763
			c0,14.646-5.438,28.667-15.31,39.48l-34.368,37.651c-24.536,26.877-26.457,67.486-4.567,96.561
			c20.396,27.092,56.674,37.331,88.227,24.895l21.222-8.364c20.115-7.926,41.733-9.333,62.523-4.067
			C403.559,758.37,453.769,768,511.896,768c58.127,0,108.339-9.63,140.225-17.709c20.788-5.265,42.406-3.859,62.523,4.068
			l21.222,8.363c31.553,12.437,67.828,2.199,88.251-24.924l0.211-0.283C846.049,708.669,844.293,668.242,820.155,641.388z
			 M654.515,45c0-8.271,6.73-15,15-15c8.271,0,15,6.729,15,15s-6.729,15-15,15C661.244,60,654.515,53.271,654.515,45z M339.515,45
			c0-8.271,6.73-15,15-15c8.271,0,15,6.729,15,15s-6.729,15-15,15S339.515,53.271,339.515,45z"/>
	</g>
</g>
<g>
	<g>
		<path fill="#C2A061" d="M594.747,301.269c-45.617-45.618-119.844-45.618-165.463,0c-45.62,45.618-45.618,119.845,0,165.464
			c22.809,22.809,52.771,34.214,82.73,34.214c29.96,0,59.923-11.405,82.731-34.214C640.365,421.113,640.365,346.887,594.747,301.269
			z M573.533,445.518c-33.92,33.923-89.115,33.923-123.035,0c-33.92-33.921-33.92-89.113,0-123.034
			c16.961-16.962,39.239-25.441,61.519-25.441s44.558,8.479,61.518,25.441C607.452,356.404,607.452,411.596,573.533,445.518z"/>
	</g>
</g>
<g>
	<g>
		<path d="M548.076,347.937c-19.882-19.882-52.235-19.884-72.124,0.002c-19.883,19.884-19.883,52.239,0.001,72.124
			c9.942,9.942,23.001,14.912,36.062,14.912s26.12-4.97,36.062-14.912c0.002,0,0.002,0,0.002-0.001
			C567.961,400.178,567.961,367.822,548.076,347.937z M526.866,398.849c-8.191,8.188-21.515,8.187-29.7,0.001
			c-8.187-8.188-8.187-21.513-0.001-29.699c4.095-4.094,9.473-6.142,14.85-6.142c5.378,0,10.757,2.046,14.849,6.14
			C535.052,377.339,535.052,390.661,526.866,398.849z"/>
	</g>
</g>
<g>
	<g>
		<path fill="#C2A061" d="M513.372,168.484l-0.658-0.001c-8.283,0-15,6.717-15,15c0,8.283,6.717,15,15,15l0.658,0.001
			c8.283,0,15-6.717,15-15C528.372,175.202,521.655,168.484,513.372,168.484z"/>
	</g>
</g>
<g>
	<g>
		<path fill="#C2A061" d="M666.606,238.119c-22.842-25.974-52.029-45.875-84.408-57.546c-7.797-2.812-16.389,1.23-19.198,9.024
			s1.23,16.389,9.024,19.198c27.63,9.96,52.546,26.951,72.052,49.134c2.966,3.372,7.107,5.094,11.271,5.094
			c3.518,0,7.05-1.23,9.899-3.735C671.468,253.818,672.077,244.339,666.606,238.119z"/>
	</g>
</g>
<g>
	<g>
		<path fill="#C2A061" d="M604.992,568.716c-5.857-5.857-15.353-5.857-21.211,0c-19.169,19.17-44.656,29.728-71.767,29.728
			c-27.109,0-52.596-10.558-71.766-29.728c-5.856-5.854-15.351-5.857-21.214,0c-5.858,5.857-5.858,15.355,0,21.215
			c24.835,24.835,57.855,38.514,92.979,38.514s68.145-13.679,92.979-38.514C610.85,584.073,610.85,574.575,604.992,568.716z"/>
	</g>
</g>
</svg>
