<?xml version="1.0" encoding="utf-8"?>
<!-- Generator: Adobe Illustrator 16.0.0, SVG Export Plug-In . SVG Version: 6.00 Build 0)  -->
<!DOCTYPE svg PUBLIC "-//W3C//DTD SVG 1.1//EN" "http://www.w3.org/Graphics/SVG/1.1/DTD/svg11.dtd">
<svg version="1.1" id="el_xJbQ2T9gu" xmlns="http://www.w3.org/2000/svg" xmlns:xlink="http://www.w3.org/1999/xlink" x="0px"
	 y="0px" width="600px" height="600px" viewBox="212 81.341 600 600" enable-background="new 212 81.341 600 600"
	 xml:space="preserve">
<g id="el_7O12wJ05lw_cJmnnSlcK">
	<g id="el_7O12wJ05lw">
		<path id="el_q24GIRgmuT" d="M512.524,272.134c61.439,0,111.235,49.796,111.235,111.228c0,61.425-49.796,111.22-111.235,111.22
			c-61.425,0-111.228-49.795-111.228-111.22C401.297,321.929,451.099,272.134,512.524,272.134z"/>
		<path id="el_KoZjZgZwuR" d="M512.524,150.214c-29.193,0-57.048,5.608-82.834,15.406c5.633,5.721,10.292,12.38,13.869,19.684
			c21.653-7.535,44.807-11.824,68.979-11.824c116.373,0,211.036,94.696,211.036,211.044s-94.664,211.063-211.05,211.063
			c-116.36,0-211.032-94.702-211.032-211.05c0-39.198,10.936-75.795,29.619-107.283c-6.403-4.902-12.049-10.779-16.57-17.476
			c-22.883,36.17-36.327,78.875-36.327,124.758c0,129.204,105.106,234.323,234.311,234.323
			c129.216,0,234.336-105.119,234.336-234.323C746.86,255.333,641.74,150.214,512.524,150.214z"/>
		<path id="el_HX8d5DmAnF" fill="#C2A061" d="M376.48,172.111c26.523,0,48.02,21.497,48.02,48.02c0,26.523-21.496,48.02-48.02,48.02
			c-26.517,0-48.021-21.497-48.021-48.02C328.46,193.608,349.963,172.111,376.48,172.111z"/>
	</g>
</g>
</svg>
