<?xml version="1.0" encoding="utf-8"?>
<!-- Generator: Adobe Illustrator 16.0.0, SVG Export Plug-In . SVG Version: 6.00 Build 0)  -->
<!DOCTYPE svg PUBLIC "-//W3C//DTD SVG 1.1//EN" "http://www.w3.org/Graphics/SVG/1.1/DTD/svg11.dtd">
<svg version="1.1" id="Capa_1" xmlns="http://www.w3.org/2000/svg" xmlns:xlink="http://www.w3.org/1999/xlink" x="0px" y="0px"
	 width="1024px" height="768px" viewBox="0 0 1024 768" enable-background="new 0 0 1024 768" xml:space="preserve">
<g>
	<path fill="#C2A061" d="M739.556,286.052v-79.83C739.556,92.516,637.469,0,512,0C386.532,0,284.444,92.516,284.444,206.222v79.83
		c-48.37,8.334-85.333,50.488-85.333,101.22v277.931c0,56.675,46.123,102.798,102.812,102.798h420.153
		c56.69,0,102.812-46.123,102.812-102.812V387.257C824.889,336.54,787.926,294.386,739.556,286.052z M312.889,206.222
		c0-98.034,89.316-177.778,199.111-177.778c109.796,0,199.111,79.744,199.111,177.778v78.222H312.889V206.222z M796.444,665.188
		c0,41.003-33.365,74.368-74.368,74.368H301.923c-41.002,0-74.368-33.365-74.368-74.368V387.257
		c0-41.003,33.365-74.368,74.368-74.368h420.153c41.003,0,74.368,33.365,74.368,74.368V665.188z"/>
	<path d="M512,398.223c-31.374,0-56.889,25.515-56.889,56.889v85.333c0,31.374,25.515,56.889,56.889,56.889
		s56.889-25.515,56.889-56.889v-85.333C568.889,423.737,543.374,398.223,512,398.223z M540.444,540.444
		c0,15.688-12.757,28.444-28.444,28.444s-28.444-12.757-28.444-28.444v-85.333c0-15.688,12.757-28.444,28.444-28.444
		s28.444,12.757,28.444,28.444V540.444z"/>
</g>
</svg>
