<?xml version="1.0" encoding="utf-8"?>
<!-- Generator: Adobe Illustrator 16.0.0, SVG Export Plug-In . SVG Version: 6.00 Build 0)  -->
<!DOCTYPE svg PUBLIC "-//W3C//DTD SVG 1.1//EN" "http://www.w3.org/Graphics/SVG/1.1/DTD/svg11.dtd">
<svg version="1.1" id="Layer_1" xmlns="http://www.w3.org/2000/svg" xmlns:xlink="http://www.w3.org/1999/xlink" x="0px" y="0px"
	 width="1024px" height="768px" viewBox="0 0 1024 768" enable-background="new 0 0 1024 768" xml:space="preserve">
<g>
	<path d="M474.188,531.47l-10.093,90.765c-0.5,4.516,0.952,9.047,3.983,12.438C471.11,638.062,475.454,640,480,640h64.001
		c4.547,0,8.891-1.938,11.922-5.327c3.031-3.391,4.485-7.922,3.984-12.438l-10.094-90.765c16.391-11.922,26.188-30.782,26.188-51.47
		c0-35.297-28.703-64-64.001-64s-64,28.703-64,64C448,500.688,457.798,519.548,474.188,531.47z M512,448c17.64,0,32,14.36,32,32
		c0,12.266-6.97,23.25-18.188,28.688c-6.11,2.969-9.688,9.438-8.938,16.172l9.25,83.141h-28.249l9.251-83.141
		c0.75-6.735-2.828-13.203-8.938-16.172c-11.219-5.438-18.188-16.422-18.188-28.688C480,462.36,494.36,448,512,448z"/>
	<path fill="#C2A061" d="M784,288h-48v-64C736,100.485,635.516,0,512,0C388.484,0,288,100.485,288,224v64h-48
		c-8.844,0-16,7.156-16,16.001v400C224,739.298,252.703,768,288,768h448C771.298,768,800,739.298,800,704V304.001
		C800,295.156,792.844,288,784,288z M320,224c0-105.875,86.125-192,192-192c105.875,0,192,86.125,192,192v64h-32v-64
		c0-88.219-71.78-160-160-160s-160,71.782-160,160v64h-32V224z M640,224v64H384v-64c0-70.578,57.421-128,128-128
		S640,153.421,640,224z M768,704c0,17.64-14.359,31.999-31.999,31.999H288c-17.64,0-32-14.359-32-31.999V320H768V704z"/>
</g>
</svg>
