<svg version="1.1" id="el_HmfNoj3OT" xmlns="http://www.w3.org/2000/svg" xmlns:xlink="http://www.w3.org/1999/xlink" x="0px" y="0px" viewBox="0 0 600 600" enable-background="new 212 81.341 600 600" xml:space="preserve"><style>@-webkit-keyframes el_CtN3P4Qp39_-y4eD3WWd_Animation{
0%{-webkit-transform: translate(512.5375061035156px, 384.53651428222656px) rotate(0deg) translate(-512.5375061035156px, -384.53651428222656px);transform: translate(512.5375061035156px, 384.53651428222656px) rotate(0deg) translate(-512.5375061035156px, -384.53651428222656px);}
50%{-webkit-transform: translate(512.5375061035156px, 384.53651428222656px) rotate(180deg) translate(-512.5375061035156px, -384.53651428222656px);transform: translate(512.5375061035156px, 384.53651428222656px) rotate(180deg) translate(-512.5375061035156px, -384.53651428222656px);}
100%{-webkit-transform: translate(512.5375061035156px, 384.53651428222656px) rotate(360deg) translate(-512.5375061035156px, -384.53651428222656px);transform: translate(512.5375061035156px, 384.53651428222656px) rotate(360deg) translate(-512.5375061035156px, -384.53651428222656px);}}
@keyframes el_CtN3P4Qp39_-y4eD3WWd_Animation{
0%{-webkit-transform: translate(512.5375061035156px, 384.53651428222656px) rotate(0deg) translate(-512.5375061035156px, -384.53651428222656px);transform: translate(512.5375061035156px, 384.53651428222656px) rotate(0deg) translate(-512.5375061035156px, -384.53651428222656px);}
50%{-webkit-transform: translate(512.5375061035156px, 384.53651428222656px) rotate(180deg) translate(-512.5375061035156px, -384.53651428222656px);transform: translate(512.5375061035156px, 384.53651428222656px) rotate(180deg) translate(-512.5375061035156px, -384.53651428222656px);}
100%{-webkit-transform: translate(512.5375061035156px, 384.53651428222656px) rotate(360deg) translate(-512.5375061035156px, -384.53651428222656px);transform: translate(512.5375061035156px, 384.53651428222656px) rotate(360deg) translate(-512.5375061035156px, -384.53651428222656px);}}
@-webkit-keyframes el_CtN3P4Qp39_iT-bhVNao_Animation{
0%{-webkit-transform: translate(512.5375061035156px, 384.53651428222656px) translate(-512.5375061035156px, -384.53651428222656px) translate(-215px, -85px);transform: translate(512.5375061035156px, 384.53651428222656px) translate(-512.5375061035156px, -384.53651428222656px) translate(-215px, -85px);}
100%{-webkit-transform: translate(512.5375061035156px, 384.53651428222656px) translate(-512.5375061035156px, -384.53651428222656px) translate(-215px, -85px);transform: translate(512.5375061035156px, 384.53651428222656px) translate(-512.5375061035156px, -384.53651428222656px) translate(-215px, -85px);}}
@keyframes el_CtN3P4Qp39_iT-bhVNao_Animation{
0%{-webkit-transform: translate(512.5375061035156px, 384.53651428222656px) translate(-512.5375061035156px, -384.53651428222656px) translate(-215px, -85px);transform: translate(512.5375061035156px, 384.53651428222656px) translate(-512.5375061035156px, -384.53651428222656px) translate(-215px, -85px);}
100%{-webkit-transform: translate(512.5375061035156px, 384.53651428222656px) translate(-512.5375061035156px, -384.53651428222656px) translate(-215px, -85px);transform: translate(512.5375061035156px, 384.53651428222656px) translate(-512.5375061035156px, -384.53651428222656px) translate(-215px, -85px);}}
#el_HmfNoj3OT *{-webkit-animation-duration: 5s;animation-duration: 5s;-webkit-animation-iteration-count: infinite;animation-iteration-count: infinite;-webkit-animation-timing-function: cubic-bezier(0, 0, 1, 1);animation-timing-function: cubic-bezier(0, 0, 1, 1);}
#el_rM709xMIeC{fill: #C2A061;}
#el_CtN3P4Qp39_iT-bhVNao{-webkit-animation-name: el_CtN3P4Qp39_iT-bhVNao_Animation;animation-name: el_CtN3P4Qp39_iT-bhVNao_Animation;-webkit-transform: translate(512.5375061035156px, 384.53651428222656px) translate(-512.5375061035156px, -384.53651428222656px) translate(-215px, -85px);transform: translate(512.5375061035156px, 384.53651428222656px) translate(-512.5375061035156px, -384.53651428222656px) translate(-215px, -85px);}
#el_CtN3P4Qp39_-y4eD3WWd{-webkit-animation-name: el_CtN3P4Qp39_-y4eD3WWd_Animation;animation-name: el_CtN3P4Qp39_-y4eD3WWd_Animation;}</style>
<g id="el_CtN3P4Qp39_iT-bhVNao" data-animator-group="true" data-animator-type="0"><g id="el_CtN3P4Qp39_-y4eD3WWd" data-animator-group="true" data-animator-type="1"><g id="el_CtN3P4Qp39">
	<g id="el_YVdbgzNVfn">
		<path id="el_lh_a-A6dFa" d="M512.524,272.134c61.439,0,111.235,49.796,111.235,111.228c0,61.425-49.796,111.22-111.235,111.22&#10;&#9;&#9;&#9;c-61.425,0-111.228-49.795-111.228-111.22C401.297,321.929,451.099,272.134,512.524,272.134z"/>
		<path id="el_WxWv-VGU-n" d="M512.524,150.214c-29.193,0-57.048,5.608-82.834,15.406c5.633,5.721,10.292,12.38,13.869,19.684&#10;&#9;&#9;&#9;c21.653-7.535,44.807-11.824,68.979-11.824c116.373,0,211.036,94.696,211.036,211.044s-94.664,211.063-211.05,211.063&#10;&#9;&#9;&#9;c-116.36,0-211.032-94.702-211.032-211.05c0-39.198,10.936-75.795,29.619-107.283c-6.403-4.902-12.049-10.779-16.57-17.476&#10;&#9;&#9;&#9;c-22.883,36.17-36.327,78.875-36.327,124.758c0,129.204,105.106,234.323,234.311,234.323&#10;&#9;&#9;&#9;c129.216,0,234.336-105.119,234.336-234.323C746.86,255.333,641.74,150.214,512.524,150.214z"/>
		<path id="el_rM709xMIeC" d="M376.48,172.111c26.523,0,48.02,21.497,48.02,48.02c0,26.523-21.496,48.02-48.02,48.02&#10;&#9;&#9;&#9;c-26.517,0-48.021-21.497-48.021-48.02C328.46,193.608,349.963,172.111,376.48,172.111z"/>
	</g>
</g></g></g>
</svg>