<?xml version="1.0" encoding="utf-8"?>
<!-- Generator: Adobe Illustrator 16.0.0, SVG Export Plug-In . SVG Version: 6.00 Build 0)  -->
<!DOCTYPE svg PUBLIC "-//W3C//DTD SVG 1.1//EN" "http://www.w3.org/Graphics/SVG/1.1/DTD/svg11.dtd">
<svg version="1.1" id="Layer_1" xmlns="http://www.w3.org/2000/svg" xmlns:xlink="http://www.w3.org/1999/xlink" x="0px" y="0px"
	 width="1024px" height="768px" viewBox="0 0 1024 768" enable-background="new 0 0 1024 768" xml:space="preserve">
<g>
	<g>
		<circle fill="#C2A061" cx="143.09" cy="750.67" r="15.09"/>
	</g>
</g>
<g>
	<g>
		<circle fill="#C2A061" cx="528.508" cy="367.962" r="15.06"/>
	</g>
</g>
<g>
	<g>
		<path d="M725.72,177.048c-12.106-12.108-28.203-18.774-45.324-18.774s-33.219,6.669-45.324,18.774
			c-24.991,24.993-24.991,65.658,0,90.65c12.498,12.496,28.908,18.742,45.324,18.742c16.411,0,32.829-6.249,45.324-18.742
			C750.711,242.705,750.711,202.04,725.72,177.048z M704.424,246.399c-13.249,13.248-34.809,13.248-48.056,0
			c-13.249-13.248-13.249-34.806,0-48.056c6.419-6.418,14.951-9.952,24.027-9.952c9.077,0,17.608,3.534,24.027,9.952
			C717.672,211.593,717.672,233.151,704.424,246.399z"/>
	</g>
</g>
<g>
	<g>
		<path fill="#C2A061" d="M316.114,617.176c-7.446-3.707-16.485-0.676-20.193,6.769l-17.937,36.022
			c-7.8,15.661-23.487,26.135-40.944,27.328l-20.862,1.429c-3.526,0.235-5.846-1.521-6.918-2.594
			c-1.073-1.072-2.833-3.396-2.594-6.92l1.428-20.86c1.195-17.455,11.668-33.144,27.329-40.944l36.021-17.937
			c7.446-3.708,10.476-12.749,6.768-20.193c-3.707-7.444-12.747-10.476-20.193-6.768l-36.021,17.937
			c-25.188,12.543-42.03,37.773-43.953,65.848l-1.428,20.86c-0.771,11.261,3.363,22.295,11.343,30.274
			c7.347,7.347,17.285,11.437,27.604,11.437c0.887,0,1.779-0.03,2.67-0.092l20.862-1.428c28.074-1.922,53.304-18.763,65.847-43.953
			l17.937-36.021C326.588,629.923,323.559,620.884,316.114,617.176z"/>
	</g>
</g>
<g>
	<g>
		<path fill="#C2A061" d="M885.606,12.27c-7.066-6.961-16.802-10.602-26.689-9.958l-14.022,0.894
			c-125.729,8.026-243.393,68.715-322.822,166.506l-33.007,40.633l-86.375-2.536c-0.147-0.005-0.295-0.006-0.441-0.006
			c-68.502,0-132.905,26.676-181.344,75.114l-88.467,88.469c-4.208,4.207-5.544,10.5-3.408,16.053
			c2.136,5.555,7.341,9.332,13.284,9.635l187.267,9.621l-7.635,9.4c-3.847,4.738-4.457,11.33-1.539,16.69
			c2.934,5.395,6.009,10.703,9.216,15.926l-44.409,52.721c-3.796,4.508-4.614,10.816-2.096,16.145
			c9.701,20.497,22.575,38.914,38.271,54.739c16.077,16.212,34.877,29.47,55.874,39.407c2.052,0.972,4.252,1.447,6.439,1.447
			c3.391,0,6.754-1.146,9.49-3.364c9.567-7.762,20.597-16.967,31.265-25.868c7.604-6.345,15.382-12.835,22.652-18.82
			c4.34,2.611,8.733,5.144,13.192,7.569c2.257,1.227,4.729,1.831,7.194,1.831c3.279,0,6.537-1.068,9.234-3.162l10.265-7.965
			l9.663,188.056c0.306,5.942,4.081,11.147,9.634,13.284c1.758,0.675,3.585,1.005,5.4,1.005c3.923,0,7.774-1.535,10.651-4.413
			l88.469-88.469c48.439-48.439,75.114-112.841,75.114-181.345v-82.492l34.9-27.083C825.422,300.769,889.122,178.377,895.597,46.14
			l0.358-7.329C896.444,28.905,892.67,19.233,885.606,12.27z M177.685,368.733l64.518-64.518
			c42.698-42.698,99.455-66.236,159.83-66.294l63.127,1.854L353.095,377.746L177.685,368.733z M405.162,560.812
			c-7.862,6.558-15.921,13.283-23.4,19.436c-14.466-7.835-27.552-17.61-38.988-29.143c-11.076-11.167-20.503-23.883-28.105-37.89
			l32.514-38.6c9.831,13.189,20.592,25.683,32.217,37.388c0.009,0.009,0.018,0.016,0.027,0.025c0.003,0.003,0.006,0.007,0.009,0.01
			c0.004,0.005,0.009,0.008,0.013,0.013c12.89,12.972,26.754,24.876,41.462,35.642C415.717,552.004,410.396,556.444,405.162,560.812
			z M655.813,491.509c0,60.458-23.542,117.296-66.294,160.048l-64.519,64.518l-9.003-175.188l139.814-108.495L655.813,491.509
			L655.813,491.509z M865.519,44.668c-6.044,123.446-65.51,237.701-163.151,313.471l-236.19,183.283
			c-19.587-11.444-37.843-24.958-54.552-40.269l79.629-79.63c5.881-5.88,5.881-15.417,0-21.298c-5.881-5.882-15.417-5.882-21.298,0
			l-79.555,79.554c-14.626-16.192-27.581-33.812-38.61-52.656L545.451,188.7c74.147-91.289,183.99-147.943,301.36-155.435
			l14.022-0.894c1.838-0.114,3.067,0.798,3.635,1.356c0.565,0.557,1.5,1.767,1.41,3.613L865.519,44.668z"/>
	</g>
</g>
</svg>
