<?xml version="1.0" encoding="utf-8"?>
<!-- Generator: Adobe Illustrator 16.0.0, SVG Export Plug-In . SVG Version: 6.00 Build 0)  -->
<!DOCTYPE svg PUBLIC "-//W3C//DTD SVG 1.1//EN" "http://www.w3.org/Graphics/SVG/1.1/DTD/svg11.dtd">
<svg version="1.1" id="Capa_1" xmlns="http://www.w3.org/2000/svg" xmlns:xlink="http://www.w3.org/1999/xlink" x="0px" y="0px"
	 width="1024px" height="768px" viewBox="0 0 1024 768" enable-background="new 0 0 1024 768" xml:space="preserve">
<g>
	<g>
		<path fill="#C2A061" d="M512,60.015c-8.307,0-14.985,6.69-14.985,14.985c0,7.721,5.809,14.145,13.485,14.907
			c8.888,0.882,16.485-6.041,16.485-14.907C526.985,66.693,520.295,60.015,512,60.015z"/>
	</g>
</g>
<g>
	<g>
		<path fill="#C2A061" d="M812,90c-41.355,0-75-33.645-75-75c0-8.283-6.717-15-15-15H302c-8.283,0-15,6.717-15,15
			c0,41.355-33.645,75-75,75c-8.283,0-15,6.717-15,15v244.785c0,190.766,124.342,361.702,310.692,417.583
			c1.405,0.42,2.855,0.632,4.308,0.632s2.905-0.212,4.31-0.633C698.622,712.679,827,544.724,827,349.785V105
			C827,96.717,820.283,90,812,90z M797,349.785c0,179.172-114.332,334.338-285,387.529c-169.308-52.767-285-209.339-285-387.529
			V118.932c45.917-6.597,82.335-43.016,88.932-88.932h392.136c6.597,45.917,43.016,82.335,88.932,88.932V349.785z"/>
	</g>
</g>
<g>
	<g>
		<path fill="#C2A061" d="M758.018,138.735c-31.28-13.699-56.053-38.472-69.753-69.753C685.874,63.525,680.483,60,674.525,60H571.97
			c-8.282,0-15,6.717-15,15s6.718,15,15,15h93.071c15.847,31.021,40.938,56.11,71.959,71.959v187.826
			c0,146.794-88.123,273.454-225,324.156c-136.876-50.703-225-177.362-225-324.156V161.959
			c31.021-15.849,56.11-40.938,71.959-71.959h93.071c8.282,0,15-6.717,15-15s-6.718-15-15-15H349.475
			c-5.958,0-11.349,3.526-13.74,8.982c-13.699,31.281-38.472,56.054-69.753,69.753c-5.456,2.391-8.982,7.784-8.982,13.74v197.31
			c0,160.819,99.466,300.979,249.996,354.249c1.618,0.573,3.311,0.859,5.004,0.859s3.386-0.286,5.004-0.859
			C667.407,650.81,767,510.735,767,349.785v-197.31C767,146.517,763.474,141.126,758.018,138.735z"/>
	</g>
</g>
<g>
	<g>
		<path d="M512,219c-74.439,0-135,60.561-135,135c0,74.439,60.561,135,135,135s135-60.561,135-135C647,279.561,586.439,219,512,219z
			 M512,459c-57.896,0-105-47.104-105-105c0-57.897,47.104-105,105-105s105,47.103,105,105C617,411.896,569.896,459,512,459z"/>
	</g>
</g>
<g>
	<g>
		<path fill="#C2A061" d="M582.606,313.392c-5.859-5.855-15.354-5.855-21.215,0L497,377.785l-19.394-19.392
			c-5.859-5.856-15.354-5.856-21.215,0c-5.857,5.857-5.857,15.355,0,21.215l30,30C489.323,412.534,493.16,414,497,414
			s7.677-1.466,10.606-4.394l75-75C588.464,328.749,588.464,319.251,582.606,313.392z"/>
	</g>
</g>
</svg>
